<svg width="38" height="38" viewBox="0 0 38 38" fill="none" xmlns="http://www.w3.org/2000/svg">
<g id="bookmarks">
<mask id="mask0_619_960" style="mask-type:alpha" maskUnits="userSpaceOnUse" x="0" y="0" width="38" height="38">
<rect id="Bounding box" width="38" height="38" fill="#D9D9D9"/>
</mask>
<g mask="url(#mask0_619_960)">
<path id="bookmarks_2" d="M4.75 36.4167V11.0834C4.75 10.2125 5.06007 9.46705 5.68021 8.84692C6.30035 8.22678 7.04583 7.91671 7.91667 7.91671H23.75C24.6208 7.91671 25.3663 8.22678 25.9865 8.84692C26.6066 9.46705 26.9167 10.2125 26.9167 11.0834V36.4167L15.8333 31.6667L4.75 36.4167ZM7.91667 31.5875L15.8333 28.1834L23.75 31.5875V11.0834H7.91667V31.5875ZM30.0833 31.6667V4.75004H9.5V1.58337H30.0833C30.9542 1.58337 31.6997 1.89344 32.3198 2.51358C32.9399 3.13372 33.25 3.87921 33.25 4.75004V31.6667H30.0833Z" fill="#266BD2"/>
</g>
</g>
</svg>
