<svg width="28" height="28" viewBox="0 0 28 28" fill="none" xmlns="http://www.w3.org/2000/svg">
<g id="bookmarks">
<mask id="mask0_780_1896" style="mask-type:alpha" maskUnits="userSpaceOnUse" x="0" y="0" width="28" height="28">
<rect id="Bounding box" width="28" height="28" fill="#D9D9D9"/>
</mask>
<g mask="url(#mask0_780_1896)">
<path id="bookmarks_2" d="M3.5 26.8337V8.16699C3.5 7.52533 3.72847 6.97602 4.18542 6.51908C4.64236 6.06213 5.19167 5.83366 5.83333 5.83366H17.5C18.1417 5.83366 18.691 6.06213 19.1479 6.51908C19.6049 6.97602 19.8333 7.52533 19.8333 8.16699V26.8337L11.6667 23.3337L3.5 26.8337ZM5.83333 23.2753L11.6667 20.767L17.5 23.2753V8.16699H5.83333V23.2753ZM22.1667 23.3337V3.50033H7V1.16699H22.1667C22.8083 1.16699 23.3576 1.39546 23.8146 1.85241C24.2715 2.30935 24.5 2.85866 24.5 3.50033V23.3337H22.1667Z" fill="#1C1B1F"/>
</g>
</g>
</svg>
