<svg width="28" height="28" viewBox="0 0 28 28" fill="none" xmlns="http://www.w3.org/2000/svg">
<g id="edit_square">
<mask id="mask0_559_531" style="mask-type:alpha" maskUnits="userSpaceOnUse" x="0" y="0" width="28" height="28">
<rect id="Bounding box" width="28" height="28" fill="#9B9D9F"/>
</mask>
<g mask="url(#mask0_559_531)">
<path id="edit_square_2" d="M5.83333 24.5C5.19167 24.5 4.64236 24.2715 4.18542 23.8145C3.72847 23.3576 3.5 22.8083 3.5 22.1666V5.83328C3.5 5.19162 3.72847 4.64231 4.18542 4.18537C4.64236 3.72842 5.19167 3.49995 5.83333 3.49995H16.2458L13.9125 5.83328H5.83333V22.1666H22.1667V14.0583L24.5 11.725V22.1666C24.5 22.8083 24.2715 23.3576 23.8146 23.8145C23.3576 24.2715 22.8083 24.5 22.1667 24.5H5.83333ZM10.5 17.5V12.5416L21.2042 1.83745C21.4375 1.60412 21.7 1.42912 21.9917 1.31245C22.2833 1.19578 22.575 1.13745 22.8667 1.13745C23.1778 1.13745 23.4743 1.19578 23.7563 1.31245C24.0382 1.42912 24.2958 1.60412 24.5292 1.83745L26.1625 3.49995C26.3764 3.73328 26.5417 3.99092 26.6583 4.27287C26.775 4.55481 26.8333 4.84162 26.8333 5.13328C26.8333 5.42495 26.7799 5.71176 26.6729 5.9937C26.566 6.27565 26.3958 6.53328 26.1625 6.76662L15.4583 17.5H10.5ZM12.8333 15.1666H14.4667L21.2333 8.39995L20.4167 7.58328L19.5708 6.76662L12.8333 13.5041V15.1666Z" fill="#9B9D9F"/>
</g>
</g>
</svg>
