<svg width="29" height="28" viewBox="0 0 29 28" fill="none" xmlns="http://www.w3.org/2000/svg">
<g id="Group">
<path id="Vector" d="M13.5982 26.6978C6.23933 26.6978 0.248047 20.7071 0.248047 13.3489C0.248047 5.99072 6.23933 0 13.5982 0C20.957 0 26.9483 5.99072 26.9483 13.3489C26.9483 20.7071 20.957 26.6978 13.5982 26.6978ZM13.5982 1.9535C7.30734 1.9535 2.20173 7.07166 2.20173 13.3489C2.20173 19.6261 7.30734 24.7443 13.5982 24.7443C19.889 24.7443 24.9946 19.6261 24.9946 13.3489C24.9946 7.07166 19.889 1.9535 13.5982 1.9535Z" fill="#9B9D9F"/>
<path id="Vector_2" d="M27.2745 28C27.0271 28 26.7796 27.9088 26.5842 27.7135L23.9793 25.1088C23.6016 24.7311 23.6016 24.106 23.9793 23.7283C24.357 23.3506 24.9822 23.3506 25.3599 23.7283L27.9648 26.333C28.3425 26.7107 28.3425 27.3358 27.9648 27.7135C27.7695 27.9088 27.522 28 27.2745 28Z" fill="#9B9D9F"/>
</g>
</svg>
