<svg width="27" height="28" viewBox="0 0 27 28" fill="none" xmlns="http://www.w3.org/2000/svg">
<g id="help">
<mask id="mask0_617_676" style="mask-type:alpha" maskUnits="userSpaceOnUse" x="0" y="0" width="27" height="28">
<rect id="Bounding box" width="26.8519" height="28" fill="#D9D9D9"/>
</mask>
<g mask="url(#mask0_617_676)">
<path id="help_2" d="M13.3696 20.9999C13.7612 20.9999 14.0922 20.8589 14.3626 20.577C14.633 20.2951 14.7682 19.9499 14.7682 19.5416C14.7682 19.1333 14.633 18.7881 14.3626 18.5062C14.0922 18.2242 13.7612 18.0833 13.3696 18.0833C12.978 18.0833 12.6471 18.2242 12.3767 18.5062C12.1063 18.7881 11.9711 19.1333 11.9711 19.5416C11.9711 19.9499 12.1063 20.2951 12.3767 20.577C12.6471 20.8589 12.978 20.9999 13.3696 20.9999ZM12.3627 16.5083H14.4325C14.4325 15.8666 14.5024 15.361 14.6423 14.9916C14.7822 14.6221 15.1784 14.1166 15.8311 13.4749C16.3159 12.9694 16.6981 12.4881 16.9779 12.0312C17.2576 11.5742 17.3974 11.0249 17.3974 10.3833C17.3974 9.29436 17.0151 8.45825 16.2506 7.87492C15.4861 7.29159 14.5817 6.99992 13.5375 6.99992C12.4746 6.99992 11.6121 7.29159 10.9502 7.87492C10.2882 8.45825 9.82668 9.15825 9.56562 9.97492L11.4117 10.7333C11.5049 10.3833 11.7147 10.0041 12.041 9.59575C12.3674 9.18742 12.8662 8.98325 13.5375 8.98325C14.1342 8.98325 14.5817 9.15339 14.8801 9.49367C15.1784 9.83395 15.3276 10.2083 15.3276 10.6166C15.3276 11.0055 15.2157 11.3701 14.9919 11.7103C14.7682 12.0506 14.4885 12.3666 14.1528 12.6583C13.3323 13.4166 12.8289 13.9902 12.6424 14.3791C12.4559 14.768 12.3627 15.4777 12.3627 16.5083ZM13.4256 25.6666C11.8779 25.6666 10.4234 25.3603 9.06215 24.7478C7.70091 24.1353 6.51682 23.3041 5.50987 22.2541C4.50293 21.2041 3.70577 19.9694 3.11838 18.5499C2.531 17.1305 2.2373 15.6138 2.2373 13.9999C2.2373 12.386 2.531 10.8694 3.11838 9.44992C3.70577 8.03047 4.50293 6.79575 5.50987 5.74575C6.51682 4.69575 7.70091 3.8645 9.06215 3.252C10.4234 2.6395 11.8779 2.33325 13.4256 2.33325C14.9733 2.33325 16.4278 2.6395 17.789 3.252C19.1502 3.8645 20.3343 4.69575 21.3413 5.74575C22.3482 6.79575 23.1454 8.03047 23.7328 9.44992C24.3202 10.8694 24.6138 12.386 24.6138 13.9999C24.6138 15.6138 24.3202 17.1305 23.7328 18.5499C23.1454 19.9694 22.3482 21.2041 21.3413 22.2541C20.3343 23.3041 19.1502 24.1353 17.789 24.7478C16.4278 25.3603 14.9733 25.6666 13.4256 25.6666ZM13.4256 23.3333C15.9243 23.3333 18.0407 22.4291 19.7749 20.6208C21.5091 18.8124 22.3762 16.6055 22.3762 13.9999C22.3762 11.3944 21.5091 9.18742 19.7749 7.37909C18.0407 5.57075 15.9243 4.66659 13.4256 4.66659C10.9269 4.66659 8.81041 5.57075 7.07623 7.37909C5.34205 9.18742 4.47496 11.3944 4.47496 13.9999C4.47496 16.6055 5.34205 18.8124 7.07623 20.6208C8.81041 22.4291 10.9269 23.3333 13.4256 23.3333Z" fill="#262121"/>
</g>
</g>
</svg>
