<svg width="20" height="20" viewBox="0 0 20 20" fill="none" xmlns="http://www.w3.org/2000/svg">
<g id="more_horiz">
<mask id="mask0_334_1146" style="mask-type:alpha" maskUnits="userSpaceOnUse" x="0" y="0" width="20" height="20">
<rect id="Bounding box" width="20" height="20" fill="#D9D9D9"/>
</mask>
<g mask="url(#mask0_334_1146)">
<path id="more_horiz_2" d="M5.00065 11.6667C4.54232 11.6667 4.14996 11.5035 3.82357 11.1771C3.49718 10.8507 3.33398 10.4584 3.33398 10C3.33398 9.54171 3.49718 9.14935 3.82357 8.82296C4.14996 8.49657 4.54232 8.33337 5.00065 8.33337C5.45898 8.33337 5.85135 8.49657 6.17773 8.82296C6.50412 9.14935 6.66732 9.54171 6.66732 10C6.66732 10.4584 6.50412 10.8507 6.17773 11.1771C5.85135 11.5035 5.45898 11.6667 5.00065 11.6667ZM10.0007 11.6667C9.54232 11.6667 9.14996 11.5035 8.82357 11.1771C8.49718 10.8507 8.33398 10.4584 8.33398 10C8.33398 9.54171 8.49718 9.14935 8.82357 8.82296C9.14996 8.49657 9.54232 8.33337 10.0007 8.33337C10.459 8.33337 10.8513 8.49657 11.1777 8.82296C11.5041 9.14935 11.6673 9.54171 11.6673 10C11.6673 10.4584 11.5041 10.8507 11.1777 11.1771C10.8513 11.5035 10.459 11.6667 10.0007 11.6667ZM15.0007 11.6667C14.5423 11.6667 14.15 11.5035 13.8236 11.1771C13.4972 10.8507 13.334 10.4584 13.334 10C13.334 9.54171 13.4972 9.14935 13.8236 8.82296C14.15 8.49657 14.5423 8.33337 15.0007 8.33337C15.459 8.33337 15.8513 8.49657 16.1777 8.82296C16.5041 9.14935 16.6673 9.54171 16.6673 10C16.6673 10.4584 16.5041 10.8507 16.1777 11.1771C15.8513 11.5035 15.459 11.6667 15.0007 11.6667Z" fill="#1C1B1F"/>
</g>
</g>
</svg>
