<svg width="63" height="60" viewBox="0 0 63 60" fill="none" xmlns="http://www.w3.org/2000/svg">
<path id="Subtract" fill-rule="evenodd" clip-rule="evenodd" d="M31.2718 59.9999C31.2424 60 31.213 60 31.1836 60C31.1542 60 31.1248 60 31.0954 59.9999H31.2718ZM48.8365 54.6894C46.5598 47.5476 38.621 42.2717 29.212 42.2717C20.8337 42.2717 13.6212 46.455 10.5341 52.414C4.14277 46.9192 0.117188 38.9136 0.117188 30C0.117188 13.4315 14.0261 0 31.1836 0C48.3411 0 62.25 13.4315 62.25 30C62.25 40.2365 56.9408 49.2756 48.8365 54.6894ZM29.2116 36.7317C35.3725 36.7317 40.3669 31.771 40.3669 25.6516C40.3669 19.5322 35.3725 14.5714 29.2116 14.5714C23.0507 14.5714 18.0564 19.5322 18.0564 25.6516C18.0564 31.771 23.0507 36.7317 29.2116 36.7317Z" fill="#D9D9D9"/>
</svg>
