<svg width="52" height="52" viewBox="0 0 52 52" fill="none" xmlns="http://www.w3.org/2000/svg">
<g id="&#240;&#159;&#166;&#134; icon &#34;MS3&#34;">
<mask id="mask0_594_120" style="mask-type:alpha" maskUnits="userSpaceOnUse" x="0" y="0" width="52" height="52">
<rect id="Bounding box" width="52" height="52" fill="#D9D9D9"/>
</mask>
<g mask="url(#mask0_594_120)">
<path id="function" d="M21.6667 39V34.6667H25.025L30.7125 28.1667L25.025 21.6667H21.45L17.9833 40.3C17.6944 41.925 17.0264 43.1979 15.9792 44.1188C14.9319 45.0396 13.5958 45.5 11.9708 45.5C10.3458 45.5 9.02778 45.0667 8.01667 44.2C7.00556 43.3333 6.5 42.1778 6.5 40.7333C6.5 39.5778 6.80694 38.6479 7.42083 37.9438C8.03472 37.2396 8.81111 36.8875 9.75 36.8875C10.6528 36.8875 11.4201 37.1944 12.0521 37.8083C12.684 38.4222 13 39.1625 13 40.0292C13 40.2097 12.991 40.3722 12.9729 40.5167C12.9549 40.6611 12.9278 40.8236 12.8917 41.0042C13.0722 40.9681 13.2257 40.8688 13.3521 40.7063C13.4785 40.5438 13.5778 40.3181 13.65 40.0292L17.0083 21.6667H10.8333V17.3333H17.8208L18.9583 11.1583C19.2111 9.78611 19.8882 8.66667 20.9896 7.8C22.091 6.93333 23.4 6.5 24.9167 6.5C26.5056 6.5 27.8056 6.96944 28.8167 7.90833C29.8278 8.84722 30.3333 10.0208 30.3333 11.4292C30.3333 12.5125 30.0264 13.4063 29.4125 14.1104C28.7986 14.8146 28.0222 15.1667 27.0833 15.1667C26.1806 15.1667 25.4132 14.8597 24.7812 14.2458C24.1493 13.6319 23.8333 12.8736 23.8333 11.9708C23.8333 11.7903 23.8424 11.6278 23.8604 11.4833C23.8785 11.3389 23.9056 11.1764 23.9417 10.9958C23.725 11.0681 23.5625 11.1764 23.4542 11.3208C23.3458 11.4653 23.2556 11.6819 23.1833 11.9708L22.2625 17.3333H32.5V21.6667H30.7667L33.5833 24.8625L36.4 21.6667H34.6667V17.3333H45.5V21.6667H42.1417L36.4542 28.1667L42.1417 34.6667H45.5V39H34.6667V34.6667H36.4L33.5833 31.4167L30.7667 34.6667H32.5V39H21.6667Z" fill="#880280"/>
</g>
</g>
</svg>
