<svg width="74" height="68" viewBox="0 0 74 68" fill="none" xmlns="http://www.w3.org/2000/svg">
<g id="&#240;&#159;&#166;&#134; icon &#34;document file pdf&#34;">
<path id="Vector" fill-rule="evenodd" clip-rule="evenodd" d="M46.884 25.1852V17.6296L32.1926 0H5.26521C2.55687 0 0.361328 2.26248 0.361328 5.0555V62.9445C0.361328 65.7366 2.54281 68 5.25214 68H41.9932C44.6943 68 46.884 65.7378 46.884 62.9861V57.9259H66.4557C70.5218 57.9259 73.8181 54.5454 73.8181 50.3734V32.7377C73.8181 28.5666 70.5469 25.1852 66.4557 25.1852H46.884ZM44.4354 57.9259V62.9796C44.4354 64.3609 43.3392 65.4815 41.9869 65.4815H5.25835C3.92327 65.4815 2.80989 64.359 2.80989 62.9744V5.0256C2.80989 3.66511 3.9013 2.51852 5.24762 2.51852H29.744V15.0962C29.744 17.9153 31.9343 20.1481 34.6361 20.1481H44.4354V25.1852H24.8637C20.7975 25.1852 17.5012 28.5657 17.5012 32.7377V50.3734C17.5012 54.5446 20.7725 57.9259 24.8637 57.9259H44.4354ZM32.1926 3.77778V15.089C32.1926 16.4921 33.2961 17.6296 34.6332 17.6296H43.7007L32.1926 3.77778ZM24.8336 27.7037C22.1364 27.7037 19.9498 29.9708 19.9498 32.7206V50.3905C19.9498 53.1612 22.1592 55.4074 24.8336 55.4074H66.4858C69.183 55.4074 71.3696 53.1403 71.3696 50.3905V32.7206C71.3696 29.9499 69.1601 27.7037 66.4858 27.7037H24.8336ZM56.6782 40.2963V35.2593H66.4724V32.7407H54.2296V50.3704H56.6782V42.8148H64.0239V40.2963H56.6782ZM24.8469 37.7778V50.3704H27.2955V42.8148H32.1807C34.8919 42.8148 37.0897 40.5791 37.0897 37.7778C37.0897 34.9959 34.901 32.7407 32.1807 32.7407H24.8469V37.7778ZM27.2955 35.2593V40.2963H32.1952C33.5461 40.2963 34.6412 39.1784 34.6412 37.7778C34.6412 36.3868 33.5573 35.2593 32.1952 35.2593H27.2955ZM39.5383 32.7407V50.3704H46.872C49.5832 50.3704 51.7811 48.1376 51.7811 45.3184V37.7927C51.7811 35.0026 49.5923 32.7407 46.872 32.7407H39.5383ZM41.9868 35.2593V47.8519H46.8865C48.2374 47.8519 49.3325 46.7343 49.3325 45.3338V37.7773C49.3325 36.3866 48.2486 35.2593 46.8865 35.2593H41.9868Z" fill="black"/>
</g>
</svg>
