<svg width="52" height="52" viewBox="0 0 52 52" fill="none" xmlns="http://www.w3.org/2000/svg">
<g id="&#240;&#159;&#166;&#134; icon &#34;MS5&#34;">
<mask id="mask0_594_126" style="mask-type:alpha" maskUnits="userSpaceOnUse" x="0" y="0" width="52" height="52">
<rect id="Bounding box" width="52" height="52" fill="#D9D9D9"/>
</mask>
<g mask="url(#mask0_594_126)">
<path id="history_edu" d="M17.3695 43.3334C16.3945 43.3334 15.5489 42.9753 14.8327 42.2591C14.1164 41.5429 13.7583 40.6973 13.7583 39.7223V33.9445H20.4028V27.7334C19.0667 27.7816 17.7516 27.5619 16.4577 27.0744C15.1637 26.5869 13.9991 25.8316 12.9639 24.8084V21.9195H10.3278L3.25 14.8417C4.55 13.4695 6.12083 12.4103 7.9625 11.664C9.80417 10.9177 11.6759 10.5445 13.5778 10.5445C14.625 10.5445 15.7655 10.683 16.9993 10.9598C18.2331 11.2366 19.3676 11.6941 20.4028 12.332V8.66675H45.5V37.3751C45.5 39.0362 44.9222 40.4445 43.7667 41.6001C42.6111 42.7556 41.2028 43.3334 39.5417 43.3334H17.3695ZM24.0139 33.9445H37.1945V37.3751C37.1945 38.0612 37.4141 38.6239 37.8535 39.0633C38.2928 39.5027 38.8556 39.7223 39.5417 39.7223C40.2278 39.7223 40.7905 39.5027 41.2299 39.0633C41.6692 38.6239 41.8889 38.0612 41.8889 37.3751V12.2778H24.0139V14.7695L37.05 27.8057V30.3695H34.4861L27.8778 23.7612L27.1195 24.6279C26.638 25.1575 26.1474 25.5848 25.6479 25.9098C25.1484 26.2348 24.6037 26.5177 24.0139 26.7584V33.9445ZM11.9167 18.3084H16.575V23.0751C17.1287 23.4362 17.6824 23.701 18.2361 23.8695C18.7898 24.0381 19.3556 24.1223 19.9333 24.1223C20.812 24.1223 21.6757 23.9177 22.5243 23.5084C23.373 23.0992 24.05 22.6177 24.5556 22.064L25.3139 21.1973L21.8111 17.6945C20.6917 16.575 19.4338 15.7054 18.0375 15.0855C16.6412 14.4656 15.1546 14.1556 13.5778 14.1556C12.687 14.1556 11.8685 14.2519 11.1222 14.4445C10.3759 14.6371 9.61756 14.9019 8.8472 15.239L11.9167 18.3084ZM33.5834 37.5557H17.3695V39.7223H34.1973C34.0167 39.4696 33.8692 39.1566 33.7549 38.7834C33.6406 38.4103 33.5834 38.001 33.5834 37.5557Z" fill="#07613B"/>
</g>
</g>
</svg>
