<svg width="60" height="60" viewBox="0 0 60 60" fill="none" xmlns="http://www.w3.org/2000/svg">
<g id="&#240;&#159;&#166;&#134; icon &#34;MS6&#34;">
<mask id="mask0_594_129" style="mask-type:alpha" maskUnits="userSpaceOnUse" x="0" y="0" width="60" height="60">
<rect id="Bounding box" width="60" height="60" fill="#D9D9D9"/>
</mask>
<g mask="url(#mask0_594_129)">
<path id="abc" d="M42.5 37.5C41.7917 37.5 41.1979 37.2604 40.7188 36.7812C40.2396 36.3021 40 35.7083 40 35V25C40 24.2917 40.2396 23.6979 40.7188 23.2188C41.1979 22.7396 41.7917 22.5 42.5 22.5H50C50.7083 22.5 51.3021 22.7396 51.7812 23.2188C52.2604 23.6979 52.5 24.2917 52.5 25V27.5H48.75V26.25H43.75V33.75H48.75V32.5H52.5V35C52.5 35.7083 52.2604 36.3021 51.7812 36.7812C51.3021 37.2604 50.7083 37.5 50 37.5H42.5ZM23.75 37.5V22.5H33.75C34.4583 22.5 35.0521 22.7396 35.5313 23.2188C36.0104 23.6979 36.25 24.2917 36.25 25V27.5C36.25 28.2083 36.0104 28.8021 35.5313 29.2812C35.0521 29.7604 34.4583 30 33.75 30C34.4583 30 35.0521 30.2396 35.5313 30.7188C36.0104 31.1979 36.25 31.7917 36.25 32.5V35C36.25 35.7083 36.0104 36.3021 35.5313 36.7812C35.0521 37.2604 34.4583 37.5 33.75 37.5H23.75ZM27.5 28.125H32.5V26.25H27.5V28.125ZM27.5 33.75H32.5V31.875H27.5V33.75ZM7.5 37.5V25C7.5 24.2917 7.73958 23.6979 8.21875 23.2188C8.69792 22.7396 9.29167 22.5 10 22.5H17.5C18.2083 22.5 18.8021 22.7396 19.2812 23.2188C19.7604 23.6979 20 24.2917 20 25V37.5H16.25V33.75H11.25V37.5H7.5ZM11.25 30H16.25V26.25H11.25V30Z" fill="#9B380E"/>
</g>
</g>
</svg>
