<svg width="52" height="52" viewBox="0 0 52 52" fill="none" xmlns="http://www.w3.org/2000/svg">
<g id="&#240;&#159;&#166;&#134; icon &#34;MS1&#34;">
<path id="Vector" d="M12.9998 6.5V13H6.49976V6.5H12.9998ZM3.24976 3.25V16.25H16.2498V3.25H3.24976Z" fill="#A26B07"/>
<path id="Vector_2" d="M29.2501 11.375V17.875H22.7501V11.375H29.2501ZM19.5001 8.125V21.125H32.5001V8.125H19.5001Z" fill="#A26B07"/>
<path id="Vector_3" d="M12.9998 26V32.5H6.49976V26H12.9998ZM3.24976 22.75V35.75H16.2498V22.75H3.24976Z" fill="#A26B07"/>
<path id="Vector_4" d="M35.7498 16.25V26H25.9998V35.75H16.2498V48.75H48.7498V16.25H35.7498ZM29.2498 29.25H35.7498V35.75H29.2498V29.25ZM25.9998 45.5H19.4998V39H25.9998V45.5ZM35.7498 45.5H29.2498V39H35.7498V45.5ZM45.4998 45.5H38.9998V39H45.4998V45.5ZM45.4998 35.75H38.9998V29.25H45.4998V35.75ZM38.9998 26V19.5H45.4998V26H38.9998Z" fill="#A26B07"/>
</g>
</svg>
